<?xml version="1.0" encoding="utf-8"?><svg xmlns="http://www.w3.org/2000/svg" xmlns:xlink="http://www.w3.org/1999/xlink"><symbol id="icons--gor1" clip-rule="evenodd" fill-rule="evenodd" image-rendering="optimizeQuality" shape-rendering="geometricPrecision" text-rendering="geometricPrecision" viewBox="0 0 20 20" xmlns="http://www.w3.org/2000/svg"><defs id="adefs4"><style id="astyle2">.afil0{fill:#0c74e2;fill-rule:nonzero}</style></defs><g transform="scale(.2092)" id="aСлой_x0020_1"><path id="apolygon7" class="afil0" fill-rule="nonzero" d="M28.01 28.38H45V16.99H28.01z"/><path id="apolygon9" class="afil0" fill-rule="nonzero" d="M50.6 11.39h11.2V0H50.6z"/><path id="apolygon11" class="afil0" fill-rule="nonzero" d="M50.6 28.38h11.2V16.99H50.6z"/><path id="apath13" d="M28.01 38.35c2.04 1.85 3.57 4.21 4.53 6.84H45V33.98H28.01z" class="afil0" fill-rule="nonzero"/><path id="apolygon15" class="afil0" fill-rule="nonzero" d="M67.41 28.38h16.8V16.99h-16.8z"/><path id="apolygon17" class="afil0" fill-rule="nonzero" d="M50.6 45.19h11.2V33.98H50.6z"/><path id="apath19" d="M45 0H30.81c-1.55 0-2.8 1.25-2.8 2.8v8.59H45z" class="afil0" fill-rule="nonzero"/><path id="apolygon21" class="afil0" fill-rule="nonzero" d="M67.41 45.19h16.8V33.98h-16.8z"/><path id="apath23" d="M84.21 2.8c0-1.55-1.25-2.8-2.8-2.8h-14v11.39h16.8z" class="afil0" fill-rule="nonzero"/><path id="apath25" d="M9.24 66.75a2.707 2.707 0 010-3.92 2.707 2.707 0 013.92 0l.84.79V53.59c0-1.57 1.24-2.8 2.8-2.8 1.57 0 2.81 1.23 2.81 2.8v15.63l.84-.79a2.707 2.707 0 013.92 0 2.707 2.707 0 010 3.92l-4.76 4.82v6.95c7.95-1.29 14-8.24 14-16.53 0-4.48-1.79-8.74-5.1-11.93l-1.12-1.06.34-1.57c.22-.73.28-1.51.28-2.24 0-6.16-5.04-11.21-11.21-11.21-6.16 0-11.2 5.05-11.2 11.21 0 .73.06 1.51.28 2.24l.34 1.57-1.12 1.06C1.79 58.85 0 63.11 0 67.59c0 8.29 6.05 15.24 14 16.53V71.57z" class="afil0" fill-rule="nonzero"/><path id="apath27" d="M2.8 90C1.25 90 0 91.25 0 92.8c0 1.55 1.25 2.8 2.8 2.8H45V73.19h-6.51C36.99 79.07 33.2 84.04 28.01 87v3h-8.4v-5.88c-.9.22-1.85.28-2.81.28-.95 0-1.9-.06-2.8-.28V90z" class="afil0" fill-rule="nonzero"/><path id="apolygon29" class="afil0" fill-rule="nonzero" d="M50.6 95.6h11.2V73.19H50.6z"/><path id="apath31" d="M92.8 90h-8.59V50.79h-50.6c0 .7-.04 1.35-.12 1.97 3.71 4.11 5.72 9.31 5.72 14.83h31c1.54 0 2.8 1.26 2.8 2.8 0 1.55-1.26 2.8-2.8 2.8h-2.8V95.6H92.8c1.55 0 2.8-1.25 2.8-2.8 0-1.55-1.25-2.8-2.8-2.8z" class="afil0" fill-rule="nonzero"/></g></symbol><symbol id="icons--map1" clip-rule="evenodd" fill-rule="evenodd" image-rendering="optimizeQuality" shape-rendering="geometricPrecision" text-rendering="geometricPrecision" viewBox="0 0 24 20" xmlns="http://www.w3.org/2000/svg"><defs id="bdefs4"><style id="bstyle2">.bfil0{fill:#0c74e2;fill-rule:nonzero}</style></defs><g transform="translate(0 .5) scale(.14405)" id="bСлой_x0020_1"><path id="bpath7" d="M135.37 0c-14.38 0-26.03 11.65-26.03 26.03 0 3.89.85 7.58 2.38 10.88l23.65 46.4 23.65-46.4c1.53-3.3 2.39-6.99 2.39-10.88C161.41 11.65 149.75 0 135.37 0zm0 41.65c-8.62 0-15.62-6.99-15.62-15.62 0-8.62 7-15.62 15.62-15.62 8.63 0 15.62 7 15.62 15.62 0 8.63-6.99 15.62-15.62 15.62zm7.79 49.29l9.48 18.95-24.03 12.01-8.05-40.29 1.49-1.5-4.96-9.76-2.54 2.54-31.24-20.82-31.24 20.82-20.83-20.82L0 114.55l41.65 20.82 41.66-20.82 41.65 20.82 41.65-20.82-17.57-35.14zM37.99 121.9l-24.02-12.01 20.12-40.25L44.7 80.26l1.36 1.35zm40.11-16.4l-29.13 14.57 7.53-37.62 1.34-.89L78.1 68.05zm10.41 0V68.05l20.26 13.51 1.33.89 7.53 37.62z" class="bfil0" fill-rule="nonzero"/></g></symbol><symbol id="icons--zagor1" clip-rule="evenodd" fill-rule="evenodd" image-rendering="optimizeQuality" shape-rendering="geometricPrecision" text-rendering="geometricPrecision" viewBox="0 0 20 20" xmlns="http://www.w3.org/2000/svg"><defs id="cdefs4"><style id="cstyle2">.cfil0{fill:#0c74e2;fill-rule:nonzero}</style></defs><g transform="scale(.01033)" id="cСлой_x0020_1"><path id="cpath7" d="M741.47 684.72c-31.31 0-56.75 25.44-56.75 56.75 0 31.3 25.44 56.74 56.75 56.74 31.3 0 56.74-25.44 56.74-56.74 0-31.31-25.44-56.75-56.74-56.75z" class="cfil0" fill-rule="nonzero"/><path id="cpath9" d="M684.72 1422.4v170.24h113.49V1422.4c0-31.3-25.44-56.74-56.74-56.74-31.31 0-56.75 25.44-56.75 56.74z" class="cfil0" fill-rule="nonzero"/><path id="cpath11" d="M0 1880.14c0 31.34 25.41 56.75 56.75 56.75h1823.4c31.34 0 56.74-25.41 56.74-56.75v-174.01H0z" class="cfil0" fill-rule="nonzero"/><path id="cpolygon13" class="cfil0" fill-rule="nonzero" d="M1535.89 1592.64v-226.98H1422.4v226.98z"/><path id="cpath15" d="M1819.62 1592.64v-340.47h60.53c24.43 0 46.1-15.63 53.81-38.79 7.75-23.16-.23-48.71-19.78-63.34l-401-340.47a56.536 56.536 0 00-68.05 0l-397.21 340.47c-19.57 14.63-27.55 40.18-19.79 63.34 7.7 23.16 29.37 38.79 53.81 38.79h56.74v340.47h170.24v-283.72c0-31.37 25.37-56.75 56.74-56.75h226.98c31.36 0 56.74 25.38 56.74 56.75v283.72z" class="cfil0" fill-rule="nonzero"/><path id="cpath17" d="M741.47 911.7c-93.87 0-170.24-76.36-170.24-170.23 0-93.87 76.37-170.24 170.24-170.24S911.7 647.6 911.7 741.47 835.34 911.7 741.47 911.7zm40.12-777.8c-22.17-22.16-58.08-22.16-80.25 0L247.38 587.86c-22.16 22.16-22.16 58.07 0 80.24 22.17 22.17 58.08 22.17 80.25 0l16.62-16.63v941.17h226.98V1422.4c0-93.87 76.37-170.23 170.24-170.23s170.23 76.36 170.23 170.23v170.24h113.49v-236.68c-48.6-17.12-87.83-55.86-104.74-106.78-23.32-69.49.56-145.97 59.47-190.02l158.76-136.22V651.47l16.63 16.63c22.16 22.17 58.07 22.17 80.24 0 22.16-22.17 22.17-58.07 0-80.24z" class="cfil0" fill-rule="nonzero"/><path id="cpath19" d="M230.76 851.91L38.79 914.64C15.63 922.34 0 944.01 0 968.45v170.23h56.75c31.36 0 56.74 25.38 56.74 56.75 0 31.36-25.38 56.74-56.74 56.74H0v113.49h56.75c31.36 0 56.74 25.38 56.74 56.74 0 31.37-25.38 56.75-56.74 56.75H0v113.49h230.76z" class="cfil0" fill-rule="nonzero"/><path id="cpath21" d="M1922.77 378.84C1895.87 267.08 1821.59 0 1706.13 0c-115.28 0-185.39 266.51-211.06 372.37-12.26 81.71-15.92 102.33-15.92 142.12 0 132.78 70.36 162.29 170.23 167.96v94.64l113.49 97.19V682.45c99.87-5.67 174.02-35.18 174.02-167.96 0-42.31-5.02-71.87-14.12-135.65z" class="cfil0" fill-rule="nonzero"/></g></symbol></svg>