<?xml version="1.0" encoding="UTF-8" standalone="no"?>
<svg
   xmlns:dc="http://purl.org/dc/elements/1.1/"
   xmlns:cc="http://creativecommons.org/ns#"
   xmlns:rdf="http://www.w3.org/1999/02/22-rdf-syntax-ns#"
   xmlns:svg="http://www.w3.org/2000/svg"
   xmlns="http://www.w3.org/2000/svg"
   id="svg34"
   viewBox="0 0 20 20"
   style="clip-rule:evenodd;fill-rule:evenodd;image-rendering:optimizeQuality;shape-rendering:geometricPrecision;text-rendering:geometricPrecision"
   version="1.1"
   height="20"
   width="20"
   xml:space="preserve"><metadata
     id="metadata38"><rdf:RDF><cc:Work
         rdf:about=""><dc:format>image/svg+xml</dc:format><dc:type
           rdf:resource="http://purl.org/dc/dcmitype/StillImage" /><dc:title></dc:title></cc:Work></rdf:RDF></metadata><defs
     id="defs4"><style
       id="style2"
       type="text/css"><![CDATA[
    .fil0 {fill:#0C74E2;fill-rule:nonzero}
   ]]></style></defs><g
     transform="scale(0.20920502)"
     id="Слой_x0020_1"><metadata
       id="CorelCorpID_0Corel-Layer" /><polygon
       style="fill:#0c74e2;fill-rule:nonzero"
       id="polygon7"
       points="28.01,28.38 45,28.38 45,16.99 28.01,16.99 "
       class="fil0" /><polygon
       style="fill:#0c74e2;fill-rule:nonzero"
       id="polygon9"
       points="50.6,11.39 61.8,11.39 61.8,0 50.6,0 "
       class="fil0" /><polygon
       style="fill:#0c74e2;fill-rule:nonzero"
       id="polygon11"
       points="50.6,28.38 61.8,28.38 61.8,16.99 50.6,16.99 "
       class="fil0" /><path
       style="fill:#0c74e2;fill-rule:nonzero"
       id="path13"
       d="m 28.01,38.35 c 2.04,1.85 3.57,4.21 4.53,6.84 H 45 V 33.98 H 28.01 Z"
       class="fil0" /><polygon
       style="fill:#0c74e2;fill-rule:nonzero"
       id="polygon15"
       points="67.41,28.38 84.21,28.38 84.21,16.99 67.41,16.99 "
       class="fil0" /><polygon
       style="fill:#0c74e2;fill-rule:nonzero"
       id="polygon17"
       points="50.6,45.19 61.8,45.19 61.8,33.98 50.6,33.98 "
       class="fil0" /><path
       style="fill:#0c74e2;fill-rule:nonzero"
       id="path19"
       d="M 45,0 H 30.81 c -1.55,0 -2.8,1.25 -2.8,2.8 v 8.59 H 45 Z"
       class="fil0" /><polygon
       style="fill:#0c74e2;fill-rule:nonzero"
       id="polygon21"
       points="67.41,45.19 84.21,45.19 84.21,33.98 67.41,33.98 "
       class="fil0" /><path
       style="fill:#0c74e2;fill-rule:nonzero"
       id="path23"
       d="M 84.21,2.8 C 84.21,1.25 82.96,0 81.41,0 h -14 v 11.39 h 16.8 z"
       class="fil0" /><path
       style="fill:#0c74e2;fill-rule:nonzero"
       id="path25"
       d="m 9.24,66.75 c -1.12,-1.06 -1.12,-2.85 0,-3.92 1.07,-1.12 2.86,-1.12 3.92,0 L 14,63.62 V 53.59 c 0,-1.57 1.24,-2.8 2.8,-2.8 1.57,0 2.81,1.23 2.81,2.8 v 15.63 l 0.84,-0.79 c 1.06,-1.12 2.85,-1.12 3.92,0 1.12,1.07 1.12,2.86 0,3.92 l -4.76,4.82 v 6.95 c 7.95,-1.29 14,-8.24 14,-16.53 0,-4.48 -1.79,-8.74 -5.1,-11.93 l -1.12,-1.06 0.34,-1.57 c 0.22,-0.73 0.28,-1.51 0.28,-2.24 0,-6.16 -5.04,-11.21 -11.21,-11.21 -6.16,0 -11.2,5.05 -11.2,11.21 0,0.73 0.06,1.51 0.28,2.24 L 6.22,54.6 5.1,55.66 C 1.79,58.85 0,63.11 0,67.59 0,75.88 6.05,82.83 14,84.12 V 71.57 Z"
       class="fil0" /><path
       style="fill:#0c74e2;fill-rule:nonzero"
       id="path27"
       d="M 2.8,90 C 1.25,90 0,91.25 0,92.8 c 0,1.55 1.25,2.8 2.8,2.8 H 45 V 73.19 H 38.49 C 36.99,79.07 33.2,84.04 28.01,87 v 3 h -8.4 v -5.88 c -0.9,0.22 -1.85,0.28 -2.81,0.28 -0.95,0 -1.9,-0.06 -2.8,-0.28 V 90 Z"
       class="fil0" /><polygon
       style="fill:#0c74e2;fill-rule:nonzero"
       id="polygon29"
       points="50.6,95.6 61.8,95.6 61.8,73.19 50.6,73.19 "
       class="fil0" /><path
       style="fill:#0c74e2;fill-rule:nonzero"
       id="path31"
       d="M 92.8,90 H 84.21 V 50.79 h -50.6 c 0,0.7 -0.04,1.35 -0.12,1.97 3.71,4.11 5.72,9.31 5.72,14.83 h 31 c 1.54,0 2.8,1.26 2.8,2.8 0,1.55 -1.26,2.8 -2.8,2.8 h -2.8 V 95.6 H 92.8 c 1.55,0 2.8,-1.25 2.8,-2.8 0,-1.55 -1.25,-2.8 -2.8,-2.8 z"
       class="fil0" /></g></svg>