<?xml version="1.0" encoding="UTF-8" standalone="no"?>
<svg
   xmlns:dc="http://purl.org/dc/elements/1.1/"
   xmlns:cc="http://creativecommons.org/ns#"
   xmlns:rdf="http://www.w3.org/1999/02/22-rdf-syntax-ns#"
   xmlns:svg="http://www.w3.org/2000/svg"
   xmlns="http://www.w3.org/2000/svg"
   id="svg10"
   viewBox="0 0 24 20"
   style="clip-rule:evenodd;fill-rule:evenodd;image-rendering:optimizeQuality;shape-rendering:geometricPrecision;text-rendering:geometricPrecision"
   version="1.1"
   height="20"
   width="24"
   xml:space="preserve"><metadata
     id="metadata14"><rdf:RDF><cc:Work
         rdf:about=""><dc:format>image/svg+xml</dc:format><dc:type
           rdf:resource="http://purl.org/dc/dcmitype/StillImage" /><dc:title></dc:title></cc:Work></rdf:RDF></metadata><defs
     id="defs4"><style
       id="style2"
       type="text/css"><![CDATA[
    .fil0 {fill:#0C74E2;fill-rule:nonzero}
   ]]></style></defs><g
     transform="matrix(0.14404898,0,0,0.14404898,0,0.50008958)"
     id="Слой_x0020_1"><metadata
       id="CorelCorpID_0Corel-Layer" /><path
       style="fill:#0c74e2;fill-rule:nonzero"
       id="path7"
       d="m 135.37,0 c -14.38,0 -26.03,11.65 -26.03,26.03 0,3.89 0.85,7.58 2.38,10.88 l 23.65,46.4 23.65,-46.4 c 1.53,-3.3 2.39,-6.99 2.39,-10.88 C 161.41,11.65 149.75,0 135.37,0 Z m 0,41.65 c -8.62,0 -15.62,-6.99 -15.62,-15.62 0,-8.62 7,-15.62 15.62,-15.62 8.63,0 15.62,7 15.62,15.62 0,8.63 -6.99,15.62 -15.62,15.62 z m 7.79,49.29 9.48,18.95 -24.03,12.01 -8.05,-40.29 1.49,-1.5 -4.96,-9.76 -2.54,2.54 L 83.31,52.07 52.07,72.89 31.24,52.07 0,114.55 l 41.65,20.82 41.66,-20.82 41.65,20.82 41.65,-20.82 -17.57,-35.14 z M 37.99,121.9 13.97,109.89 34.09,69.64 44.7,80.26 46.06,81.61 Z M 78.1,105.5 48.97,120.07 56.5,82.45 57.84,81.56 78.1,68.05 Z m 10.41,0 V 68.05 l 20.26,13.51 1.33,0.89 7.53,37.62 z"
       class="fil0" /></g></svg>