<?xml version="1.0" encoding="UTF-8" standalone="no"?>
<svg
   xmlns:dc="http://purl.org/dc/elements/1.1/"
   xmlns:cc="http://creativecommons.org/ns#"
   xmlns:rdf="http://www.w3.org/1999/02/22-rdf-syntax-ns#"
   xmlns:svg="http://www.w3.org/2000/svg"
   xmlns="http://www.w3.org/2000/svg"
   id="svg24"
   viewBox="0 0 20 20"
   style="clip-rule:evenodd;fill-rule:evenodd;image-rendering:optimizeQuality;shape-rendering:geometricPrecision;text-rendering:geometricPrecision"
   version="1.1"
   height="20.000002"
   width="20.000002"
   xml:space="preserve"><metadata
     id="metadata28"><rdf:RDF><cc:Work
         rdf:about=""><dc:format>image/svg+xml</dc:format><dc:type
           rdf:resource="http://purl.org/dc/dcmitype/StillImage" /><dc:title></dc:title></cc:Work></rdf:RDF></metadata><defs
     id="defs4"><style
       id="style2"
       type="text/css"><![CDATA[
    .fil0 {fill:#0C74E2;fill-rule:nonzero}
   ]]></style></defs><g
     transform="matrix(0.01032583,0,0,0.01032583,0,1.6455e-6)"
     id="Слой_x0020_1"><metadata
       id="CorelCorpID_0Corel-Layer" /><path
       style="fill:#0c74e2;fill-rule:nonzero"
       id="path7"
       d="m 741.47,684.72 c -31.31,0 -56.75,25.44 -56.75,56.75 0,31.3 25.44,56.74 56.75,56.74 31.3,0 56.74,-25.44 56.74,-56.74 0,-31.31 -25.44,-56.75 -56.74,-56.75 z"
       class="fil0" /><path
       style="fill:#0c74e2;fill-rule:nonzero"
       id="path9"
       d="m 684.72,1422.4 v 170.24 H 798.21 V 1422.4 c 0,-31.3 -25.44,-56.74 -56.74,-56.74 -31.31,0 -56.75,25.44 -56.75,56.74 z"
       class="fil0" /><path
       style="fill:#0c74e2;fill-rule:nonzero"
       id="path11"
       d="m 0,1880.14 c 0,31.34 25.41,56.75 56.75,56.75 h 1823.4 c 31.34,0 56.74,-25.41 56.74,-56.75 V 1706.13 H 0 Z"
       class="fil0" /><polygon
       style="fill:#0c74e2;fill-rule:nonzero"
       id="polygon13"
       points="1535.89,1592.64 1535.89,1365.66 1422.4,1365.66 1422.4,1592.64 "
       class="fil0" /><path
       style="fill:#0c74e2;fill-rule:nonzero"
       id="path15"
       d="m 1819.62,1592.64 v -340.47 h 60.53 c 24.43,0 46.1,-15.63 53.81,-38.79 7.75,-23.16 -0.23,-48.71 -19.78,-63.34 l -401,-340.47 c -20.17,-15.18 -47.88,-15.18 -68.05,0 l -397.21,340.47 c -19.57,14.63 -27.55,40.18 -19.79,63.34 7.7,23.16 29.37,38.79 53.81,38.79 h 56.74 v 340.47 h 170.24 v -283.72 c 0,-31.37 25.37,-56.75 56.74,-56.75 h 226.98 c 31.36,0 56.74,25.38 56.74,56.75 v 283.72 z"
       class="fil0" /><path
       style="fill:#0c74e2;fill-rule:nonzero"
       id="path17"
       d="m 741.47,911.7 c -93.87,0 -170.24,-76.36 -170.24,-170.23 0,-93.87 76.37,-170.24 170.24,-170.24 93.87,0 170.23,76.37 170.23,170.24 0,93.87 -76.36,170.23 -170.23,170.23 z m 40.12,-777.8 c -22.17,-22.16 -58.08,-22.16 -80.25,0 L 247.38,587.86 c -22.16,22.16 -22.16,58.07 0,80.24 22.17,22.17 58.08,22.17 80.25,0 l 16.62,-16.63 v 941.17 H 571.23 V 1422.4 c 0,-93.87 76.37,-170.23 170.24,-170.23 93.87,0 170.23,76.36 170.23,170.23 v 170.24 h 113.49 v -236.68 c -48.6,-17.12 -87.83,-55.86 -104.74,-106.78 -23.32,-69.49 0.56,-145.97 59.47,-190.02 L 1138.68,922.94 V 651.47 l 16.63,16.63 c 22.16,22.17 58.07,22.17 80.24,0 22.16,-22.17 22.17,-58.07 0,-80.24 z"
       class="fil0" /><path
       style="fill:#0c74e2;fill-rule:nonzero"
       id="path19"
       d="M 230.76,851.91 38.79,914.64 C 15.63,922.34 0,944.01 0,968.45 v 170.23 h 56.75 c 31.36,0 56.74,25.38 56.74,56.75 0,31.36 -25.38,56.74 -56.74,56.74 H 0 v 113.49 h 56.75 c 31.36,0 56.74,25.38 56.74,56.74 0,31.37 -25.38,56.75 -56.74,56.75 H 0 v 113.49 h 230.76 z"
       class="fil0" /><path
       style="fill:#0c74e2;fill-rule:nonzero"
       id="path21"
       d="M 1922.77,378.84 C 1895.87,267.08 1821.59,0 1706.13,0 c -115.28,0 -185.39,266.51 -211.06,372.37 -12.26,81.71 -15.92,102.33 -15.92,142.12 0,132.78 70.36,162.29 170.23,167.96 v 94.64 l 113.49,97.19 V 682.45 c 99.87,-5.67 174.02,-35.18 174.02,-167.96 0,-42.31 -5.02,-71.87 -14.12,-135.65 z"
       class="fil0" /></g></svg>